<svg id="Layer_35" enable-background="new 0 0 64 64" height="512" viewBox="0 0 64 64" width="512" xmlns="http://www.w3.org/2000/svg" xmlns:xlink="http://www.w3.org/1999/xlink"><linearGradient id="SVGID_1_" gradientUnits="userSpaceOnUse" x1="32" x2="32" y1="63" y2="1"><stop offset="0" stop-color="#9f2fff"/><stop offset="1" stop-color="#0bb1d3"/></linearGradient><path d="m34 7h-2v-2h2zm4-2h-2v2h2zm4 0h-2v2h2zm2 2h12v-2h-12zm-12 4h24v-2h-24zm27 38h4v14h-10v-14h4v-2h-12v2h4v14h-10v-14h4v-2h-12v2h4v14h-10v-14h4v-4h14v-3.42l-8.016-4.58 8.016-4.58v-2.42h-3c-1.444 0-2.651-1.025-2.936-2.386-.473.239-.999.386-1.564.386h-14.5c-.551 0-1 .449-1 1l-.002 30.002c0 2.205-1.793 3.998-3.998 3.998-1.201 0-2.267-.542-3-1.382-.734.84-1.8 1.382-3 1.382-2.206 0-4-1.794-4-4v-14c-2.757 0-5-2.243-5-5v-10c0-4.273 2.997-7.853 6.997-8.767-1.825-1.468-2.997-3.715-2.997-6.233 0-4.411 3.589-8 8-8s8 3.589 8 8c0 2.39-1.059 4.533-2.726 6h17.226c.695 0 1.339.209 1.885.56.511-.925 1.485-1.56 2.615-1.56h3v-5h-15v-14h32v14h-15v5h3c1.654 0 3 1.346 3 3v4c0 1.654-1.346 3-3 3h-3v2.42l8.016 4.58-8.016 4.58v3.42h14zm-29-36h28v-10h-28zm-17 8c3.309 0 6-2.691 6-6s-2.691-6-6-6-6 2.691-6 6 2.691 6 6 6zm24 3.5c0-.827-.673-1.5-1.5-1.5h-25.5c-3.86 0-7 3.14-7 7v10c0 1.654 1.346 3 3 3v-15h2v31c0 1.103.897 2 2 2s2-.897 2-2v-21h2l.001 21.005c0 1.1.897 1.995 1.999 1.995s1.998-.896 1.998-1.998l.002-30.002c0-1.654 1.346-3 3-3h14.5c.827 0 1.5-.673 1.5-1.5zm3 3.5h8c.551 0 1-.449 1-1v-4c0-.551-.449-1-1-1h-8c-.551 0-1 .449-1 1v4c0 .551.449 1 1 1zm-.984 9 4.984 2.848 4.984-2.848-4.984-2.848zm-6.016 14h-6v10h6zm14 0h-6v10h6zm14 0h-6v10h6zm-30 2h-2v2h2zm0 4h-2v2h2zm14-4h-2v2h2zm0 4h-2v2h2zm14 0h-2v2h2zm0-4h-2v2h2zm-18-27h2v-2h-2zm4 0h2v-2h-2z" fill="url(#SVGID_1_)"/></svg>