<?xml version="1.0" encoding="iso-8859-1"?>
<!-- Generator: Adobe Illustrator 19.0.0, SVG Export Plug-In . SVG Version: 6.00 Build 0)  -->
<svg version="1.1" id="Capa_1" xmlns="http://www.w3.org/2000/svg" xmlns:xlink="http://www.w3.org/1999/xlink" x="0px" y="0px"
	 viewBox="0 0 512.001 512.001" style="enable-background:new 0 0 512.001 512.001;" xml:space="preserve">
<path style="fill:#F9F9F9;" d="M488.969,488.969H23.031V23.031h465.938V488.969z"/>
<path style="fill:#C1C1C1;" d="M34.194,14.78v482.44c0,4.021-3.259,7.28-7.28,7.28s-7.28-3.259-7.28-7.28V14.78
	c0-4.021,3.259-7.28,7.28-7.28S34.194,10.759,34.194,14.78z M485.086,7.5c-4.021,0-7.28,3.259-7.28,7.28v482.44
	c0,4.021,3.259,7.28,7.28,7.28s7.28-3.259,7.28-7.28V14.78C492.366,10.759,489.107,7.5,485.086,7.5z"/>
<path style="fill:#FFD178;" d="M495.086,248.723c0,5.522-4.478,10-10,10h-9.223c-62.945,0-123.509,19.027-175.144,55.023
	l-95.55,66.61c-52.554,36.637-114.193,56.002-178.256,56.002c-5.522,0-10-4.478-10-10s4.478-10,10-10
	c59.952,0,117.637-18.122,166.818-52.408l95.55-66.61c55.007-38.348,119.525-58.617,186.581-58.617h9.223
	C490.608,238.723,495.086,243.2,495.086,248.723z"/>
<path style="fill:#FF904E;" d="M46.328,431.859c0,10.722-8.692,19.414-19.414,19.414S7.5,442.581,7.5,431.859
	s8.692-19.414,19.414-19.414S46.328,421.137,46.328,431.859z M485.086,237.557c-10.722,0-19.414,8.692-19.414,19.414
	c0,10.722,8.692,19.414,19.414,19.414s19.414-8.692,19.414-19.414S495.809,237.557,485.086,237.557z"/>
<path style="fill:#A2DAC2;" d="M493.145,424.422c0,5.522-4.478,10-10,10h-11.648c-71.602,0-139.019-38.109-175.941-99.455
	L200.14,176.445c-17.744-29.478-42.955-54.008-72.906-70.939c-29.953-16.931-63.971-25.88-98.377-25.88c-5.522,0-10-4.478-10-10
	s4.478-10,10-10c37.848,0,75.27,9.845,108.219,28.47c32.947,18.624,60.68,45.608,80.199,78.035l95.416,158.522
	c33.328,55.372,94.179,89.77,158.807,89.77h11.648C488.667,414.422,493.145,418.899,493.145,424.422z"/>
<path style="fill:#FE5E47;" d="M495.086,68.169c0,5.522-4.478,10-10,10h-9.223c-62.936,0-123.295,19.301-174.552,55.816
	l-96.689,68.88C152.437,240.041,90.985,259.69,26.914,259.69c-5.522,0-10-4.478-10-10s4.478-10,10-10
	c59.888,0,117.326-18.366,166.104-53.114l96.689-68.88c54.664-38.943,119.035-59.527,186.155-59.527h9.223
	C490.608,58.169,495.086,62.646,495.086,68.169z"/>
<path style="fill:#DB3131;" d="M46.328,256.971c0,10.722-8.692,19.414-19.414,19.414S7.5,267.693,7.5,256.971
	s8.692-19.414,19.414-19.414S46.328,246.248,46.328,256.971z M485.086,57.491c-10.722,0-19.414,8.692-19.414,19.414
	s8.692,19.414,19.414,19.414S504.5,87.628,504.5,76.905C504.5,66.183,495.809,57.491,485.086,57.491z"/>
<path style="fill:#61AE9F;" d="M46.328,76.905c0,10.722-8.692,19.414-19.414,19.414S7.5,87.628,7.5,76.905
	c0-10.722,8.692-19.414,19.414-19.414C37.636,57.491,46.328,66.183,46.328,76.905z M485.086,412.445
	c-10.722,0-19.414,8.692-19.414,19.414c0,10.722,8.692,19.414,19.414,19.414c10.722,0,19.414-8.692,19.414-19.414
	S495.809,412.445,485.086,412.445z"/>
<path d="M512,256.971c0-12.239-8.211-22.596-19.414-25.851V102.756C503.789,99.501,512,89.145,512,76.905
	s-8.211-22.596-19.414-25.851V7.5c0-4.143-3.357-7.5-7.5-7.5s-7.5,3.357-7.5,7.5v43.555c-8.476,2.462-15.238,8.989-18.029,17.321
	c-59.171,3.096-115.831,22.847-164.175,57.286l-79.706,56.78l-6.782-11.269C175.403,115.53,117.459,78.302,53.133,70.81
	c-2.204-9.482-9.434-17.059-18.718-19.756V7.5c0-4.143-3.357-7.5-7.5-7.5s-7.5,3.357-7.5,7.5v43.555C8.211,54.31,0,64.666,0,76.905
	s8.211,22.596,19.414,25.851V231.12C8.211,234.375,0,244.731,0,256.971c0,12.24,8.211,22.596,19.414,25.851V406.01
	C8.211,409.264,0,419.62,0,431.859s8.211,22.596,19.414,25.851v46.79c0,4.143,3.357,7.5,7.5,7.5s7.5-3.357,7.5-7.5v-46.79
	c8.573-2.49,15.394-9.141,18.124-17.61c55.785-4.531,109.404-23.779,155.365-55.821l78.72-54.878l4.835,8.032
	c18.003,29.908,43.423,55.07,73.512,72.766c28.598,16.818,61.036,26.675,94.119,28.637c2.435,9.069,9.501,16.262,18.497,18.875
	v46.79c0,4.143,3.357,7.5,7.5,7.5s7.5-3.357,7.5-7.5v-46.79C503.789,454.455,512,444.099,512,431.859s-8.211-22.596-19.414-25.851
	V282.821C503.789,279.566,512,269.21,512,256.971z M485.086,64.991c6.569,0,11.914,5.345,11.914,11.914
	c0,6.498-5.229,11.797-11.699,11.912c-0.143-0.004-0.287-0.004-0.43,0c-6.471-0.115-11.699-5.414-11.699-11.912
	C473.172,70.336,478.517,64.991,485.086,64.991z M15,76.905c0-6.569,5.345-11.914,11.914-11.914s11.914,5.345,11.914,11.914
	c0,6.498-5.229,11.797-11.699,11.912c-0.071-0.002-0.143-0.003-0.215-0.003s-0.144,0.001-0.215,0.003
	C20.229,88.702,15,83.403,15,76.905z M15,256.971c0-6.569,5.345-11.914,11.914-11.914s11.914,5.345,11.914,11.914
	c0,6.537-5.292,11.861-11.817,11.914c-0.032-0.001-0.064-0.001-0.097-0.001s-0.064,0-0.097,0.001
	C20.293,268.832,15,263.508,15,256.971z M26.914,443.773c-6.569,0-11.914-5.345-11.914-11.914s5.345-11.914,11.914-11.914
	s11.914,5.345,11.914,11.914S33.483,443.773,26.914,443.773z M199.325,371.974c-43.337,30.212-93.822,48.484-146.379,53.039
	c-2.403-9.13-9.494-16.378-18.532-19.004V282.821c9.186-2.669,16.359-10.111,18.646-19.452
	c50.718-4.285,99.941-21.072,142.717-48.723c3.479-2.249,4.476-6.892,2.228-10.37c-2.25-3.479-6.895-4.477-10.37-2.228
	c-40.54,26.206-87.16,42.158-135.215,46.32c-2.806-8.297-9.554-14.794-18.005-17.249V102.756
	c8.345-2.424,15.029-8.789,17.897-16.938c59.369,7.2,112.787,41.683,143.73,93.092l82.829,137.609L199.325,371.974z
	 M459.396,423.828c-64.128-3.95-121.815-38.855-155.086-94.132l-80.875-134.363l80.65-57.454
	c45.64-32.513,99.064-51.271,154.887-54.448c2.319,9.281,9.47,16.669,18.614,19.325V231.12c-8.642,2.511-15.502,9.245-18.188,17.812
	c-54.079,2.819-106.729,19.538-152.544,48.478c-3.502,2.212-4.548,6.844-2.336,10.346s6.845,4.548,10.346,2.336
	c43.338-27.374,93.096-43.27,144.23-46.121c2.441,9.058,9.504,16.24,18.491,18.852v123.188
	C468.942,408.52,462.08,415.259,459.396,423.828z M497,431.859c0,6.569-5.345,11.914-11.914,11.914s-11.914-5.345-11.914-11.914
	s5.345-11.914,11.914-11.914S497,425.29,497,431.859z M485.184,268.885c-0.064-0.002-0.129-0.002-0.193,0
	c-6.525-0.053-11.817-5.377-11.817-11.914c0-6.569,5.345-11.914,11.914-11.914S497,250.401,497,256.971
	C497,263.508,491.707,268.832,485.184,268.885z"/>
<g>
</g>
<g>
</g>
<g>
</g>
<g>
</g>
<g>
</g>
<g>
</g>
<g>
</g>
<g>
</g>
<g>
</g>
<g>
</g>
<g>
</g>
<g>
</g>
<g>
</g>
<g>
</g>
<g>
</g>
</svg>
