<svg height="406pt" viewBox="0 -13 406 406" width="406pt" xmlns="http://www.w3.org/2000/svg"><path d="m0 349.289062c.0195312 16.5625 13.4375 29.980469 30 30h346c16.5625-.019531 29.980469-13.4375 30-30v-248.132812h-406zm249.667969-152.105468c-3.941407-3.871094-4.003907-10.203125-.136719-14.144532 3.871094-3.941406 10.203125-4 14.144531-.132812l44.136719 43.308594c1.917969 1.882812 2.996094 4.453125 2.996094 7.140625 0 2.683593-1.078125 5.257812-2.996094 7.136719l-44.136719 43.308593c-3.941406 3.867188-10.273437 3.808594-14.144531-.132812-3.867188-3.941407-3.804688-10.273438.136719-14.144531l36.859375-36.167969zm-80.902344 109.5 38.257813-150.5c.859374-3.488282 3.519531-6.25 6.972656-7.230469 3.457031-.984375 7.171875-.039063 9.738281 2.472656 2.5625 2.515625 3.585937 6.210938 2.671875 9.683594l-38.257812 150.5c-1.394532 5.3125-6.8125 8.507813-12.132813 7.152344-5.324219-1.351563-8.558594-6.746094-7.25-12.078125zm-77.074219-80.464844 44.136719-43.3125c3.945313-3.867188 10.277344-3.808594 14.144531.132812 3.867188 3.945313 3.808594 10.277344-.132812 14.144532l-36.863282 36.171875 36.863282 36.171875c3.941406 3.867187 4 10.199218.132812 14.140625-3.867187 3.941406-10.199218 4.003906-14.144531.132812l-44.136719-43.308593c-1.914062-1.878907-2.996094-4.453126-2.996094-7.136719 0-2.6875 1.082032-5.257813 2.996094-7.136719zm0 0"/><path d="m376 0h-346c-16.5625.0195312-29.9804688 13.4375-30 30v51.15625h406v-51.15625c-.019531-16.5625-13.4375-29.9804688-30-30zm0 0"/></svg>