<svg id="Layer_3" enable-background="new 0 0 64 64" height="512" viewBox="0 0 64 64" width="512" xmlns="http://www.w3.org/2000/svg"><g><g><path d="m59 18v37c0 3.866-3.134 7-7 7-3.866 0-7-3.134-7-7v-37z" fill="#c7e2fc"/></g><g><path d="m45 37.128c5.822-2.061 10-7.6 10-14.128 0-1.756-.317-3.434-.872-5h-9.128z" fill="#ebf7fe"/></g><g><path d="m59 26v29c0 3.866-3.134 7-7 7-3.866 0-7-3.134-7-7v-27l2.168-1.445c.542-.362 1.18-.555 1.832-.555.652 0 1.29.193 1.832.555l1.336.891c.542.361 1.18.554 1.832.554h.22c.513 0 1.018-.119 1.477-.349z" fill="#b4e05d"/></g><g><path d="m54.128 28h-.128c-.652 0-1.289-.193-1.832-.555l-1.336-.891c-.543-.361-1.18-.554-1.832-.554s-1.289.193-1.832.555l-2.168 1.445v9.128c4.256-1.507 7.621-4.872 9.128-9.128z" fill="#c8ec6c"/></g><g><circle cx="51" cy="55" fill="#243242" r="2"/></g><g><circle cx="53" cy="44" fill="#243242" r="2"/></g><g><path d="m42 14h20v4h-20z" fill="#8a8275"/></g><g><path d="m23 22v6.493c7.455 1.801 13 8.498 13 16.507 0 9.389-7.611 17-17 17s-17-7.611-17-17c0-8.009 5.545-14.706 13-16.507v-6.493z" fill="#c7e2fc"/></g><g><path d="m18.243 22h-3.243v6.493c-7.455 1.801-13 8.498-13 16.507 0 7.389 4.722 13.659 11.307 16.002 6.509-5.127 10.693-13.073 10.693-22.002 0-6.395-2.148-12.286-5.757-17z" fill="#ebf7fe"/></g><g><path d="m36 44-1.857.619c-.757.252-1.55.381-2.348.381h-1.043c-1.152 0-2.289-.268-3.32-.784l-.865-.433c-1.03-.515-2.167-.783-3.319-.783h-.495c-1.152 0-2.289.268-3.32.784l-.865.433c-1.031.515-2.168.783-3.32.783h-.495c-1.152 0-2.289-.268-3.32-.784l-.865-.433c-1.031-.515-2.168-.783-3.32-.783-1.466 0-2.898.434-4.118 1.247l-1.13.753c0 9.389 7.611 17 17 17s17-7.611 17-17c0-.335-.01-.668-.029-.998z" fill="#ed634a"/></g><g><path d="m23.248 43h-.495c-1.152 0-2.289.268-3.32.784l-.865.433c-1.031.515-2.168.783-3.32.783h-.495c-1.152 0-2.289-.268-3.32-.784l-.865-.433c-1.031-.515-2.168-.783-3.32-.783-1.466 0-2.898.434-4.118 1.247l-1.13.753c0 7.389 4.722 13.659 11.307 16.002 5.512-4.342 9.353-10.705 10.401-17.975-.154-.01-.306-.027-.46-.027z" fill="#f29f8c"/></g><g><circle cx="17" cy="55" fill="#243242" r="3"/></g><g><circle cx="29" cy="50" fill="#77ceee" r="2"/></g><g><circle cx="9" cy="50" fill="#77ceee" r="2"/></g><g><path d="m12 18h14v4h-14z" fill="#8a8275"/></g><g><path d="m19 63c-9.925 0-18-8.075-18-18 0-8.068 5.307-15.063 13-17.276v-5.724h2v6.493c0 .462-.316.863-.765.972-7.204 1.74-12.235 8.129-12.235 15.535 0 8.822 7.178 16 16 16s16-7.178 16-16c0-7.406-5.031-13.795-12.235-15.535-.449-.109-.765-.51-.765-.972v-6.493h2v5.724c7.693 2.213 13 9.208 13 17.276 0 9.925-8.075 18-18 18z"/></g><g><path d="m26 23h-14c-.552 0-1-.447-1-1v-4c0-.553.448-1 1-1h14c.552 0 1 .447 1 1v4c0 .553-.448 1-1 1zm-13-2h12v-2h-12z"/></g><g><path d="m31.795 46h-1.043c-1.301 0-2.604-.308-3.767-.89l-.864-.432c-.889-.444-1.882-.678-2.873-.678h-.495c-.992 0-1.985.234-2.873.679l-.866.432c-1.163.581-2.466.889-3.766.889h-.495c-1.301 0-2.604-.308-3.767-.89l-.864-.432c-2.029-1.014-4.554-.854-6.436.4l-1.13.753-1.109-1.664 1.13-.753c2.469-1.647 5.783-1.854 8.439-.525l.864.432c.888.445 1.881.679 2.872.679h.495c.992 0 1.985-.234 2.873-.679l.866-.432c1.163-.582 2.465-.89 3.766-.89h.495c1.301 0 2.604.308 3.767.89l.864.432c.89.445 1.883.679 2.874.679h1.043c.691 0 1.374-.111 2.031-.33l1.857-.618.633 1.896-1.857.619c-.862.287-1.758.433-2.664.433z"/></g><g><path d="m29 53c-1.654 0-3-1.346-3-3s1.346-3 3-3 3 1.346 3 3-1.346 3-3 3zm0-4c-.551 0-1 .448-1 1s.449 1 1 1 1-.448 1-1-.449-1-1-1z"/></g><g><path d="m51 58c-1.654 0-3-1.346-3-3s1.346-3 3-3 3 1.346 3 3-1.346 3-3 3zm0-4c-.551 0-1 .448-1 1s.449 1 1 1 1-.448 1-1-.449-1-1-1z"/></g><g><path d="m53 47c-1.654 0-3-1.346-3-3s1.346-3 3-3 3 1.346 3 3-1.346 3-3 3zm0-4c-.551 0-1 .448-1 1s.449 1 1 1 1-.448 1-1-.449-1-1-1z"/></g><g><path d="m9 53c-1.654 0-3-1.346-3-3s1.346-3 3-3 3 1.346 3 3-1.346 3-3 3zm0-4c-.551 0-1 .448-1 1s.449 1 1 1 1-.448 1-1-.449-1-1-1z"/></g><g><path d="m17 59c-2.206 0-4-1.794-4-4s1.794-4 4-4 4 1.794 4 4-1.794 4-4 4zm0-6c-1.103 0-2 .897-2 2s.897 2 2 2 2-.897 2-2-.897-2-2-2z"/></g><g><path d="m52 63c-4.411 0-8-3.589-8-8v-37h2v37c0 3.309 2.691 6 6 6s6-2.691 6-6v-37h2v37c0 4.411-3.589 8-8 8z"/></g><g><path d="m62 19h-20c-.552 0-1-.447-1-1v-4c0-.553.448-1 1-1h20c.552 0 1 .447 1 1v4c0 .553-.448 1-1 1zm-19-2h18v-2h-18z"/></g><g><path d="m54.22 29h-.22c-.852 0-1.677-.25-2.386-.723l-1.336-.891c-.76-.506-1.794-.506-2.555 0l-2.167 1.445-1.109-1.664 2.168-1.445c1.42-.945 3.354-.945 4.773 0l1.336.891c.379.253.82.387 1.276.387h.22c.356 0 .712-.084 1.029-.243l3.303-1.651.895 1.789-3.303 1.651c-.593.297-1.259.454-1.924.454z"/></g><g><path d="m48 32h2v2h-2z"/></g><g><path d="m22 46h2v2h-2z"/></g><g><path d="m24 55h2v2h-2z"/></g><g><path d="m14 48h2v2h-2z"/></g><g><path d="m54 37h2v2h-2z"/></g><g><path d="m48 48h2v2h-2z"/></g><g><path d="m22 18h-2v-16c0-.553.448-1 1-1h26c.552 0 1 .447 1 1v12h-2v-11h-24z"/></g><g><path d="m18 18h-2v-10c0-.553.448-1 1-1h40c.552 0 1 .447 1 1v6h-2v-5h-38z"/></g></g></svg>