<svg height="512pt" viewBox="0 -6 512.00081 512" width="512pt" xmlns="http://www.w3.org/2000/svg"><path d="m255.671875 499.578125 195.347656-112.785156v-225.402344l-195.324219-112.769531-195.375 112.695312v225.476563zm0 0" fill="#0470b2"/><path d="m60.328125 161.3125-.007813.003906v225.476563l195.351563 112.785156v-225.484375zm0 0" fill="#0882bf"/><path d="m450.972656 161.3125.007813.003906v225.476563l-195.351563 112.785156v-225.484375zm0 0" fill="#005ca0"/><g fill="#005182"><path d="m450.972656 161.3125-35.515625 20.503906v196.652344l-159.828125 92.277344v28.832031l195.351563-112.785156v-225.476563zm0 0"/><path d="m7.511719 427.320312c-2.5625 0-5.058594-1.3125-6.460938-3.675781-2.113281-3.5625-.9375-8.164062 2.625-10.277343l3.011719-1.785157c3.5625-2.113281 8.164062-.941406 10.277344 2.625 2.113281 3.5625.9375 8.164063-2.625 10.277344l-3.011719 1.785156c-1.199219.710938-2.515625 1.050781-3.816406 1.050781zm0 0"/><path d="m30.558594 413.648438c-2.5625 0-5.058594-1.3125-6.460938-3.675782-2.113281-3.5625-.9375-8.164062 2.625-10.277344l5.609375-3.328124c3.566407-2.113282 8.167969-.9375 10.277344 2.625 2.117187 3.5625.941406 8.167968-2.625 10.277343l-5.609375 3.328125c-1.199219.714844-2.515625 1.050782-3.816406 1.050782zm25.644531-15.210938c-2.558594 0-5.054687-1.3125-6.457031-3.675781-2.113282-3.5625-.9375-8.164063 2.625-10.277344l5.609375-3.324219c3.5625-2.117187 8.167969-.941406 10.277343 2.625 2.113282 3.5625.9375 8.164063-2.625 10.277344l-5.609374 3.324219c-1.199219.714843-2.519532 1.050781-3.820313 1.050781zm25.648437-15.210938c-2.5625 0-5.058593-1.3125-6.457031-3.675781-2.117187-3.5625-.941406-8.164062 2.625-10.277343l5.609375-3.324219c3.5625-2.117188 8.164063-.9375 10.277344 2.625s.9375 8.164062-2.625 10.277343l-5.609375 3.324219c-1.199219.714844-2.519531 1.050781-3.820313 1.050781zm25.648438-15.210937c-2.5625 0-5.058594-1.3125-6.460938-3.675781-2.113281-3.5625-.9375-8.164063 2.625-10.277344l5.613282-3.324219c3.5625-2.117187 8.164062-.9375 10.277344 2.625 2.113281 3.5625.9375 8.164063-2.625 10.277344l-5.609376 3.324219c-1.203124.714844-2.519531 1.050781-3.820312 1.050781zm25.648438-15.210937c-2.5625 0-5.058594-1.3125-6.460938-3.675782-2.113281-3.5625-.9375-8.164062 2.625-10.277344l5.613281-3.324218c3.5625-2.113282 8.164063-.9375 10.277344 2.625s.9375 8.164062-2.625 10.277344l-5.613281 3.328124c-1.199219.710938-2.519532 1.046876-3.816406 1.046876zm0 0"/><path d="m158.792969 337.59375c-2.5625 0-5.054688-1.308594-6.457031-3.671875-2.113282-3.566406-.9375-8.167969 2.625-10.28125l3.011718-1.785156c3.5625-2.109375 8.164063-.9375 10.277344 2.625s.9375 8.164062-2.625 10.277343l-3.011719 1.789063c-1.199219.710937-2.519531 1.046875-3.820312 1.046875zm0 0"/></g><path d="m504.492188 429.320312c-1.3125 0-2.640626-.34375-3.84375-1.0625l-3.003907-1.796874c-3.554687-2.128907-4.714843-6.734376-2.585937-10.289063 2.125-3.554687 6.734375-4.714844 10.289062-2.585937l3.003906 1.796874c3.554688 2.125 4.710938 6.734376 2.582032 10.289063-1.402344 2.347656-3.890625 3.648437-6.441406 3.648437zm0 0" fill="#0882bf"/><path d="m481.179688 415.371094c-1.3125 0-2.640626-.339844-3.847657-1.0625l-5.683593-3.402344c-3.554688-2.128906-4.714844-6.734375-2.585938-10.289062 2.128906-3.554688 6.734375-4.710938 10.289062-2.585938l5.683594 3.402344c3.558594 2.125 4.714844 6.734375 2.585938 10.289062-1.402344 2.347656-3.890625 3.648438-6.441406 3.648438zm-25.996094-15.550782c-1.3125 0-2.640625-.34375-3.847656-1.066406l-5.683594-3.402344c-3.554688-2.125-4.714844-6.730468-2.585938-10.289062 2.125-3.554688 6.734375-4.710938 10.289063-2.585938l5.683593 3.402344c3.558594 2.128906 4.714844 6.734375 2.585938 10.289063-1.402344 2.347656-3.890625 3.652343-6.441406 3.652343zm-25.996094-15.554687c-1.3125 0-2.640625-.34375-3.84375-1.0625l-5.6875-3.402344c-3.554688-2.128906-4.714844-6.734375-2.585938-10.289062 2.125-3.554688 6.734376-4.710938 10.289063-2.585938l5.683594 3.402344c3.558593 2.125 4.714843 6.730469 2.585937 10.289063-1.402344 2.347656-3.890625 3.648437-6.441406 3.648437zm-25.996094-15.550781c-1.3125 0-2.636718-.34375-3.84375-1.066406l-5.6875-3.402344c-3.554687-2.125-4.714844-6.734375-2.585937-10.289063 2.128906-3.554687 6.734375-4.710937 10.289062-2.585937l5.6875 3.402344c3.554688 2.128906 4.710938 6.734374 2.585938 10.289062-1.40625 2.347656-3.894531 3.652344-6.445313 3.652344zm-25.996094-15.554688c-1.3125 0-2.640624-.34375-3.84375-1.066406l-5.6875-3.398438c-3.554687-2.128906-4.714843-6.734374-2.585937-10.289062 2.125-3.558594 6.734375-4.710938 10.289063-2.585938l5.6875 3.402344c3.554687 2.125 4.710937 6.730469 2.582031 10.285156-1.402344 2.351563-3.890625 3.652344-6.441407 3.652344zm0 0" fill="#0882bf"/><path d="m351.199219 337.605469c-1.3125 0-2.640625-.339844-3.84375-1.0625l-3.003907-1.796875c-3.554687-2.128906-4.714843-6.734375-2.585937-10.289063 2.125-3.554687 6.734375-4.710937 10.289063-2.585937l3.003906 1.796875c3.554687 2.128906 4.710937 6.734375 2.582031 10.289062-1.402344 2.347657-3.890625 3.648438-6.441406 3.648438zm0 0" fill="#0882bf"/><path d="m255.75 182.027344c-4.140625 0-7.5-3.359375-7.5-7.5v-7c0-4.144532 3.359375-7.503906 7.5-7.503906 4.144531 0 7.503906 3.359374 7.503906 7.503906v7c0 4.140625-3.359375 7.5-7.503906 7.5zm0-32.003906c-4.140625 0-7.5-3.359376-7.5-7.503907v-7c0-4.140625 3.359375-7.5 7.5-7.5 4.144531 0 7.503906 3.359375 7.503906 7.5v7c0 4.144531-3.359375 7.503907-7.503906 7.503907zm0-32.003907c-4.140625 0-7.5-3.359375-7.5-7.503906v-7c0-4.140625 3.359375-7.5 7.5-7.5 4.144531 0 7.503906 3.359375 7.503906 7.5v7c0 4.144531-3.359375 7.503906-7.503906 7.503906zm0-32.007812c-4.140625 0-7.5-3.355469-7.5-7.5v-7c0-4.144531 3.359375-7.5 7.5-7.5 4.144531 0 7.503906 3.355469 7.503906 7.5v7c0 4.144531-3.359375 7.5-7.503906 7.5zm0-32.003907c-4.140625 0-7.5-3.355468-7.5-7.5v-7c0-4.144531 3.359375-7.503906 7.5-7.503906 4.144531 0 7.503906 3.359375 7.503906 7.503906v7c0 4.140626-3.359375 7.5-7.503906 7.5zm0-32.003906c-4.140625 0-7.5-3.359375-7.5-7.5v-7.003906c0-4.140625 3.359375-7.5 7.5-7.5 4.144531 0 7.503906 3.359375 7.503906 7.5v7.003906c0 4.140625-3.359375 7.5-7.503906 7.5zm0 0" fill="#005182"/><path d="m255.671875 374.429688 86.59375-49.996094v-99.917969l-86.582031-49.988281-86.605469 49.957031v99.949219zm0 0" fill="#ffee57"/><path d="m342.265625 224.515625-.339844-.195313zm0 0" fill="#f4a72c"/><path d="m169.078125 324.113281v.320313l86.59375 49.996094 86.59375-49.996094v-.3125l-86.601563-50zm0 0" fill="#fad200"/><path d="m255.683594 174.527344-86.605469 49.957031v99.625l86.585937-49.988281-.035156-.019532v-99.542968zm0 0" fill="#fab700"/><path d="m255.628906 174.558594.054688-.03125-25.019532 14.433594v75.59375l.03125.019531-61.617187 35.574219v23.960937l86.585937-49.988281-.035156-.019532zm0 0" fill="#faa200"/></svg>